<svg width="192" height="192" viewBox="0 0 192 192" xmlns="http://www.w3.org/2000/svg">
  <defs>
    <linearGradient id="bg" x1="0%" y1="0%" x2="100%" y2="100%">
      <stop offset="0%" style="stop-color:#323437;stop-opacity:1" />
      <stop offset="100%" style="stop-color:#2c2e31;stop-opacity:1" />
    </linearGradient>
    <linearGradient id="accent" x1="0%" y1="0%" x2="100%" y2="100%">
      <stop offset="0%" style="stop-color:#e2b714;stop-opacity:1" />
      <stop offset="100%" style="stop-color:#f1c40f;stop-opacity:1" />
    </linearGradient>
  </defs>
  
  <!-- Background -->
  <rect width="192" height="192" rx="32" fill="url(#bg)"/>
  
  <!-- Main icon container -->
  <rect x="32" y="32" width="128" height="128" rx="20" fill="url(#accent)"/>
  
  <!-- QR Code pattern -->
  <g fill="#2c2e31">
    <!-- Corner squares -->
    <rect x="48" y="48" width="24" height="24" rx="2"/>
    <rect x="120" y="48" width="24" height="24" rx="2"/>
    <rect x="48" y="120" width="24" height="24" rx="2"/>
    
    <!-- Center pattern -->
    <rect x="84" y="84" width="24" height="24" rx="2"/>
    
    <!-- Data dots -->
    <rect x="80" y="48" width="8" height="8" rx="1"/>
    <rect x="96" y="48" width="8" height="8" rx="1"/>
    <rect x="80" y="64" width="8" height="8" rx="1"/>
    <rect x="104" y="64" width="8" height="8" rx="1"/>
    <rect x="48" y="80" width="8" height="8" rx="1"/>
    <rect x="64" y="80" width="8" height="8" rx="1"/>
    <rect x="120" y="80" width="8" height="8" rx="1"/>
    <rect x="136" y="80" width="8" height="8" rx="1"/>
    <rect x="48" y="96" width="8" height="8" rx="1"/>
    <rect x="64" y="96" width="8" height="8" rx="1"/>
    <rect x="120" y="96" width="8" height="8" rx="1"/>
    <rect x="136" y="96" width="8" height="8" rx="1"/>
    <rect x="80" y="120" width="8" height="8" rx="1"/>
    <rect x="96" y="120" width="8" height="8" rx="1"/>
    <rect x="80" y="136" width="8" height="8" rx="1"/>
    <rect x="104" y="136" width="8" height="8" rx="1"/>
  </g>
</svg>